<svg width="161" height="311" viewBox="0 0 161 311" fill="none" xmlns="http://www.w3.org/2000/svg">
<path d="M145.131 78.3606C136.715 104.588 108.789 119.071 82.7617 110.719C56.7342 102.367 42.4495 74.3391 50.8656 48.1117C59.2817 21.8844 87.2078 7.40136 113.235 15.7533C139.263 24.1052 153.547 52.1333 145.131 78.3606Z" fill="white" stroke="black"/>
<path d="M110.326 80.4587C114.117 86.2137 116.915 89.4008 122.657 92.7591C126.076 94.7588 129.418 96.0371 133.285 97.278" stroke="black" stroke-linecap="round" stroke-linejoin="round"/>
<ellipse cx="128.156" cy="67.4403" rx="5" ry="5.15625" transform="rotate(17.7909 128.156 67.4403)" fill="black"/>
<path d="M72.5 106.5L40 200L72.5 210.5L53.5 255.5L63.5 265.5" stroke="black"/>
<path d="M40.0001 199.5L27.5001 267.5L1.00005 306.5L18.0001 310" stroke="black"/>
<path d="M68.4999 117.5L21.5 136.5L14 173" stroke="black"/>
<path d="M68.9999 117L96.4999 173L126.5 162" stroke="black"/>
</svg>
