<svg width="186" height="285" viewBox="0 0 186 285" fill="none" xmlns="http://www.w3.org/2000/svg">
<path d="M170.131 78.3606C161.715 104.588 133.789 119.071 107.762 110.719C81.7342 102.367 67.4495 74.3391 75.8656 48.1117C84.2817 21.8844 112.208 7.40136 138.235 15.7533C164.263 24.1052 178.547 52.1333 170.131 78.3606Z" fill="white" stroke="black"/>
<path d="M135.326 80.4587C139.117 86.2137 141.915 89.4008 147.657 92.7591C151.076 94.7588 154.418 96.0371 158.285 97.278" stroke="black" stroke-linecap="round" stroke-linejoin="round"/>
<ellipse cx="153.156" cy="67.4403" rx="5" ry="5.15625" transform="rotate(17.7909 153.156 67.4403)" fill="black"/>
<path d="M97.5 106.5L65 200L39 246L1.5 272L9 283" stroke="black"/>
<path d="M65 199.5L102.5 235L109.5 281L126.5 284.5" stroke="black"/>
<path d="M93.4999 117.5L127.5 147L169 125" stroke="black"/>
<path d="M93.9998 117L48 150L46 188" stroke="black"/>
</svg>
