<svg width="1116" height="10556" viewBox="0 0 1116 10556" fill="none" xmlns="http://www.w3.org/2000/svg">
<g clip-path="url(#clip0)">
<rect width="1116" height="406" fill="white"/>
<path d="M165.945 116.693C185.943 92.4735 223.057 92.4735 243.055 116.693L301.039 186.914C327.963 219.521 304.77 268.75 262.483 268.75H146.517C104.23 268.75 81.0372 219.521 107.961 186.914L165.945 116.693Z" fill="#C4C4C4"/>
<line x1="-8" y1="274.5" x2="1384" y2="274.5" stroke="black"/>
</g>
<g clip-path="url(#clip1)">
<rect y="406" width="1116" height="406" fill="white"/>
<path d="M226.656 513.354C242.655 493.979 272.345 493.979 288.344 513.354L367.553 609.282C389.093 635.367 370.538 674.75 336.709 674.75H178.291C144.462 674.75 125.907 635.367 147.447 609.281L226.656 513.354Z" fill="#C4C4C4"/>
<line x1="-8" y1="680.5" x2="1384" y2="680.5" stroke="black"/>
</g>
<g clip-path="url(#clip2)">
<rect y="812" width="1116" height="406" fill="white"/>
<path d="M275.367 910.016C287.366 895.484 309.634 895.484 321.633 910.016L422.068 1031.65C438.222 1051.21 424.307 1080.75 398.935 1080.75H198.065C172.693 1080.75 158.778 1051.21 174.932 1031.65L275.367 910.016Z" fill="#C4C4C4"/>
<line x1="-8" y1="1086.5" x2="1384" y2="1086.5" stroke="black"/>
</g>
<g clip-path="url(#clip3)">
<rect y="1218" width="1116" height="406" fill="white"/>
<path d="M319.078 1306.68C327.077 1296.99 341.923 1296.99 349.922 1306.68L471.582 1454.02C482.352 1467.06 473.075 1486.75 456.16 1486.75H212.84C195.925 1486.75 186.648 1467.06 197.418 1454.02L319.078 1306.68Z" fill="#C4C4C4"/>
<line x1="-8" y1="1492.5" x2="1384" y2="1492.5" stroke="black"/>
</g>
<g clip-path="url(#clip4)">
<rect y="1624" width="1116" height="406" fill="white"/>
<path d="M368.789 1703.34C372.789 1698.49 380.211 1698.49 384.211 1703.34L527.097 1876.38C532.482 1882.9 527.843 1892.75 519.386 1892.75H233.614C225.157 1892.75 220.518 1882.9 225.903 1876.38L368.789 1703.34Z" fill="#C4C4C4"/>
<line x1="-8" y1="1898.5" x2="1384" y2="1898.5" stroke="black"/>
</g>
<g clip-path="url(#clip5)">
<rect y="2030" width="1116" height="406" fill="white"/>
<path d="M416.5 2100L580.612 2298.75H252.388L416.5 2100Z" fill="#C4C4C4"/>
<line x1="-8" y1="2304.5" x2="1384" y2="2304.5" stroke="black"/>
</g>
<g clip-path="url(#clip6)">
<rect y="2436" width="1116" height="406" fill="white"/>
<path d="M434.25 2506.05L592.671 2709.37L264.579 2700.08L434.25 2506.05Z" fill="#C4C4C4"/>
<line x1="-8" y1="2710.5" x2="1384" y2="2710.5" stroke="black"/>
</g>
<g clip-path="url(#clip7)">
<rect y="2842" width="1116" height="406" fill="white"/>
<path d="M452.22 2900.4L592.832 3116.42L266.709 3079.35L452.22 2900.4Z" fill="#C4C4C4"/>
<line x1="-8" y1="3116.5" x2="1384" y2="3116.5" stroke="black"/>
</g>
<g clip-path="url(#clip8)">
<rect y="3248" width="1116" height="406" fill="white"/>
<path d="M470.92 3296.44L593.752 3523.04L271.654 3459.92L470.92 3296.44Z" fill="#C4C4C4"/>
<line x1="-8" y1="3522.5" x2="1384" y2="3522.5" stroke="black"/>
</g>
<g clip-path="url(#clip9)">
<rect y="3654" width="1116" height="406" fill="white"/>
<path d="M486.702 3693L592.562 3928L275.968 3841.41L486.702 3693Z" fill="#C4C4C4"/>
<line x1="-8" y1="3928.5" x2="1384" y2="3928.5" stroke="black"/>
</g>
<g clip-path="url(#clip10)">
<rect y="4060" width="1116" height="406" fill="white"/>
<line x1="-8" y1="4334.5" x2="1384" y2="4334.5" stroke="black"/>
<path d="M508.01 4091.08L592.519 4334.58L284.895 4220.13L508.01 4091.08Z" fill="#C4C4C4"/>
</g>
<g clip-path="url(#clip11)">
<rect y="4466" width="1116" height="406" fill="white"/>
<line x1="-8" y1="4740.5" x2="1384" y2="4740.5" stroke="black"/>
<path d="M551.839 4485.26L592.249 4739.82L309.521 4573.1L551.839 4485.26Z" fill="#C4C4C4"/>
</g>
<g clip-path="url(#clip12)">
<rect y="4872" width="1116" height="406" fill="white"/>
<path d="M579.44 4888.45L591.898 5145.9L328.999 4949.39L579.44 4888.45Z" fill="#C4C4C4"/>
<line x1="-8" y1="5146.5" x2="1384" y2="5146.5" stroke="black"/>
</g>
<g clip-path="url(#clip13)">
<rect y="5278" width="1116" height="406" fill="white"/>
<path d="M606.876 5295.3L593.096 5552.68L351.538 5330.46L606.876 5295.3Z" fill="#C4C4C4"/>
<line x1="-8" y1="5552.5" x2="1384" y2="5552.5" stroke="black"/>
</g>
<g clip-path="url(#clip14)">
<rect y="5684" width="1116" height="406" fill="white"/>
<path d="M655.676 5707.25L595.906 5957.98L398.173 5696L655.676 5707.25Z" fill="#C4C4C4"/>
<line x1="-8" y1="5958.5" x2="1384" y2="5958.5" stroke="black"/>
</g>
<g clip-path="url(#clip15)">
<rect y="6090" width="1116" height="406" fill="white"/>
<path d="M693.154 6122.39L602.389 6363.62L439.1 6078.9L693.154 6122.39Z" fill="#C4C4C4"/>
<line x1="-8" y1="6364.5" x2="1384" y2="6364.5" stroke="black"/>
</g>
<g clip-path="url(#clip16)">
<rect y="6496" width="1116" height="406" fill="white"/>
<line x1="-8" y1="6770.5" x2="1384" y2="6770.5" stroke="black"/>
<path d="M720.711 6539.45L607.865 6771.19L471.814 6472.49L720.711 6539.45Z" fill="#C4C4C4"/>
</g>
<g clip-path="url(#clip17)">
<rect y="6902" width="1116" height="406" fill="white"/>
<line x1="-8" y1="7176.5" x2="1384" y2="7176.5" stroke="black"/>
<path d="M759.694 6968.98L606.069 7175.94L527.404 6857.28L759.694 6968.98Z" fill="#C4C4C4"/>
</g>
<g clip-path="url(#clip18)">
<rect y="7308" width="1116" height="406" fill="white"/>
<line x1="-8" y1="7582.5" x2="1384" y2="7582.5" stroke="black"/>
<path d="M792.826 7405.02L606.271 7582.87L582.89 7255.48L792.826 7405.02Z" fill="#C4C4C4"/>
</g>
<g clip-path="url(#clip19)">
<rect y="7714" width="1116" height="406" fill="white"/>
<line x1="-8" y1="7988.5" x2="1384" y2="7988.5" stroke="black"/>
<path d="M820.048 7845.7L605.506 7988.54L639.19 7662.05L820.048 7845.7Z" fill="#C4C4C4"/>
</g>
<g clip-path="url(#clip20)">
<rect y="8120" width="1116" height="406" fill="white"/>
<line x1="-8" y1="8394.5" x2="1384" y2="8394.5" stroke="black"/>
<path d="M838.206 8281.63L606.368 8394.26L683.747 8075.29L838.206 8281.63Z" fill="#C4C4C4"/>
</g>
<g clip-path="url(#clip21)">
<rect y="8526" width="1116" height="406" fill="white"/>
<line x1="-8" y1="8800.5" x2="1384" y2="8800.5" stroke="black"/>
<path d="M851.898 8721.18L606.946 8801.39L726.801 8495.83L851.898 8721.18Z" fill="#C4C4C4"/>
</g>
<g clip-path="url(#clip22)">
<rect y="8932" width="1116" height="406" fill="white"/>
<line x1="-8" y1="9206.5" x2="1384" y2="9206.5" stroke="black"/>
<path d="M860.637 9147.61L609.627 9206.16L755.655 8912.21L860.637 9147.61Z" fill="#C4C4C4"/>
</g>
<g clip-path="url(#clip23)">
<rect y="9338" width="1116" height="406" fill="white"/>
<line x1="-8" y1="9612.5" x2="1384" y2="9612.5" stroke="black"/>
<path d="M867.638 9587L611.161 9612.57L794.006 9339.99L867.638 9587Z" fill="#C4C4C4"/>
</g>
<g clip-path="url(#clip24)">
<rect y="9744" width="1116" height="406" fill="white"/>
<line x1="-8" y1="10018.5" x2="1384" y2="10018.5" stroke="black"/>
<path d="M870.383 10013.1L612.685 10018.2L816.613 9761.05L870.383 10013.1Z" fill="#C4C4C4"/>
</g>
<g clip-path="url(#clip25)">
<rect y="10150" width="1116" height="406" fill="white"/>
<line x1="-8" y1="10424.5" x2="1384" y2="10424.5" stroke="black"/>
<path d="M872.977 10423.9L615.229 10423.7L824.452 10170.8L872.977 10423.9Z" fill="#C4C4C4"/>
</g>
<defs>
<clipPath id="clip0">
<rect width="1116" height="406" fill="white"/>
</clipPath>
<clipPath id="clip1">
<rect y="406" width="1116" height="406" fill="white"/>
</clipPath>
<clipPath id="clip2">
<rect y="812" width="1116" height="406" fill="white"/>
</clipPath>
<clipPath id="clip3">
<rect y="1218" width="1116" height="406" fill="white"/>
</clipPath>
<clipPath id="clip4">
<rect y="1624" width="1116" height="406" fill="white"/>
</clipPath>
<clipPath id="clip5">
<rect y="2030" width="1116" height="406" fill="white"/>
</clipPath>
<clipPath id="clip6">
<rect y="2436" width="1116" height="406" fill="white"/>
</clipPath>
<clipPath id="clip7">
<rect y="2842" width="1116" height="406" fill="white"/>
</clipPath>
<clipPath id="clip8">
<rect y="3248" width="1116" height="406" fill="white"/>
</clipPath>
<clipPath id="clip9">
<rect y="3654" width="1116" height="406" fill="white"/>
</clipPath>
<clipPath id="clip10">
<rect y="4060" width="1116" height="406" fill="white"/>
</clipPath>
<clipPath id="clip11">
<rect y="4466" width="1116" height="406" fill="white"/>
</clipPath>
<clipPath id="clip12">
<rect y="4872" width="1116" height="406" fill="white"/>
</clipPath>
<clipPath id="clip13">
<rect y="5278" width="1116" height="406" fill="white"/>
</clipPath>
<clipPath id="clip14">
<rect y="5684" width="1116" height="406" fill="white"/>
</clipPath>
<clipPath id="clip15">
<rect y="6090" width="1116" height="406" fill="white"/>
</clipPath>
<clipPath id="clip16">
<rect y="6496" width="1116" height="406" fill="white"/>
</clipPath>
<clipPath id="clip17">
<rect y="6902" width="1116" height="406" fill="white"/>
</clipPath>
<clipPath id="clip18">
<rect y="7308" width="1116" height="406" fill="white"/>
</clipPath>
<clipPath id="clip19">
<rect y="7714" width="1116" height="406" fill="white"/>
</clipPath>
<clipPath id="clip20">
<rect y="8120" width="1116" height="406" fill="white"/>
</clipPath>
<clipPath id="clip21">
<rect y="8526" width="1116" height="406" fill="white"/>
</clipPath>
<clipPath id="clip22">
<rect y="8932" width="1116" height="406" fill="white"/>
</clipPath>
<clipPath id="clip23">
<rect y="9338" width="1116" height="406" fill="white"/>
</clipPath>
<clipPath id="clip24">
<rect y="9744" width="1116" height="406" fill="white"/>
</clipPath>
<clipPath id="clip25">
<rect y="10150" width="1116" height="406" fill="white"/>
</clipPath>
</defs>
</svg>
